<?xml version="1.0" encoding="UTF-8" standalone="no"?>
<!DOCTYPE svg PUBLIC "-//W3C//DTD SVG 1.1//EN"
 "http://www.w3.org/Graphics/SVG/1.1/DTD/svg11.dtd">
<!-- Generated by graphviz version 2.38.0 (20140413.2041)
 -->
<!-- Title: G Pages: 1 -->
<svg width="384pt" height="1474pt"
 viewBox="0.00 0.00 384.49 1474.00" xmlns="http://www.w3.org/2000/svg" xmlns:xlink="http://www.w3.org/1999/xlink">
<g id="graph0" class="graph" transform="scale(1 1) rotate(0) translate(4 1470)">
<title>G</title>
<polygon fill="white" stroke="none" points="-4,4 -4,-1470 380.486,-1470 380.486,4 -4,4"/>
<g id="clust1" class="cluster"><title>cluster_Global</title>
<path fill="none" stroke="gray" d="M237.486,-8C237.486,-8 356.486,-8 356.486,-8 362.486,-8 368.486,-14 368.486,-20 368.486,-20 368.486,-1446 368.486,-1446 368.486,-1452 362.486,-1458 356.486,-1458 356.486,-1458 237.486,-1458 237.486,-1458 231.486,-1458 225.486,-1452 225.486,-1446 225.486,-1446 225.486,-20 225.486,-20 225.486,-14 231.486,-8 237.486,-8"/>
<text text-anchor="middle" x="296.986" y="-1445.2" font-family="Times New Roman,serif" font-size="11.00" fill="gray">Global</text>
</g>
<g id="clust2" class="cluster"><title>cluster_\FileAttributeTools</title>
<path fill="none" stroke="gray" d="M245.486,-1358C245.486,-1358 348.486,-1358 348.486,-1358 354.486,-1358 360.486,-1364 360.486,-1370 360.486,-1370 360.486,-1418 360.486,-1418 360.486,-1424 354.486,-1430 348.486,-1430 348.486,-1430 245.486,-1430 245.486,-1430 239.486,-1430 233.486,-1424 233.486,-1418 233.486,-1418 233.486,-1370 233.486,-1370 233.486,-1364 239.486,-1358 245.486,-1358"/>
<text text-anchor="middle" x="296.986" y="-1417.2" font-family="Times New Roman,serif" font-size="11.00" fill="gray">FileAttributeTools</text>
</g>
<!-- \\FileAttributeTools\\FileAttributes -->
<g id="node1" class="node"><title>\\FileAttributeTools\\FileAttributes</title>
<polygon fill="none" stroke="black" points="352.486,-1402 241.486,-1402 241.486,-1366 352.486,-1366 352.486,-1402"/>
<text text-anchor="middle" x="296.986" y="-1381.2" font-family="Courier,monospace" font-size="11.00">FileAttributes</text>
</g>
<!-- \\Database -->
<g id="node2" class="node"><title>\\Database</title>
<polygon fill="none" stroke="black" points="332.486,-1348 261.486,-1348 261.486,-1312 332.486,-1312 332.486,-1348"/>
<text text-anchor="middle" x="296.986" y="-1327.2" font-family="Courier,monospace" font-size="11.00">Database</text>
</g>
<!-- \\ModuleManager -->
<g id="node3" class="node"><title>\\ModuleManager</title>
<polygon fill="none" stroke="black" points="348.986,-1294 244.986,-1294 244.986,-1258 348.986,-1258 348.986,-1294"/>
<text text-anchor="middle" x="296.986" y="-1273.2" font-family="Courier,monospace" font-size="11.00">ModuleManager</text>
</g>
<!-- \\Iterator -->
<g id="node27" class="node"><title>\\Iterator</title>
<ellipse fill="none" stroke="black" cx="81.2428" cy="-1330" rx="39.7935" ry="18"/>
<text text-anchor="middle" x="81.2428" y="-1326.3" font-family="Times New Roman,serif" font-size="14.00" fill="gray">\Iterator</text>
</g>
<!-- \\ModuleManager&#45;&gt;\\Iterator -->
<g id="edge1" class="edge"><title>\\ModuleManager&#45;&gt;\\Iterator</title>
<path fill="none" stroke="black" stroke-dasharray="1,5" d="M244.789,-1288.93C208.594,-1298.08 160.577,-1310.21 126.132,-1318.91"/>
<polygon fill="none" stroke="black" points="125.191,-1315.54 116.353,-1321.38 126.906,-1322.33 125.191,-1315.54"/>
</g>
<!-- \\ArrayAccess -->
<g id="node28" class="node"><title>\\ArrayAccess</title>
<ellipse fill="none" stroke="black" cx="81.2428" cy="-1276" rx="60.3893" ry="18"/>
<text text-anchor="middle" x="81.2428" y="-1272.3" font-family="Times New Roman,serif" font-size="14.00" fill="gray">\ArrayAccess</text>
</g>
<!-- \\ModuleManager&#45;&gt;\\ArrayAccess -->
<g id="edge2" class="edge"><title>\\ModuleManager&#45;&gt;\\ArrayAccess</title>
<path fill="none" stroke="black" stroke-dasharray="1,5" d="M244.789,-1276C216.938,-1276 182.088,-1276 151.807,-1276"/>
<polygon fill="none" stroke="black" points="151.73,-1272.5 141.73,-1276 151.73,-1279.5 151.73,-1272.5"/>
</g>
<!-- \\Countable -->
<g id="node29" class="node"><title>\\Countable</title>
<ellipse fill="none" stroke="black" cx="81.2428" cy="-1222" rx="50.0912" ry="18"/>
<text text-anchor="middle" x="81.2428" y="-1218.3" font-family="Times New Roman,serif" font-size="14.00" fill="gray">\Countable</text>
</g>
<!-- \\ModuleManager&#45;&gt;\\Countable -->
<g id="edge3" class="edge"><title>\\ModuleManager&#45;&gt;\\Countable</title>
<path fill="none" stroke="black" stroke-dasharray="1,5" d="M244.789,-1263.07C210.876,-1254.5 166.585,-1243.31 132.802,-1234.77"/>
<polygon fill="none" stroke="black" points="133.231,-1231.27 122.679,-1232.22 131.517,-1238.06 133.231,-1231.27"/>
</g>
<!-- \\banners -->
<g id="node4" class="node"><title>\\banners</title>
<polygon fill="none" stroke="black" points="328.986,-1240 264.986,-1240 264.986,-1204 328.986,-1204 328.986,-1240"/>
<text text-anchor="middle" x="296.986" y="-1219.2" font-family="Courier,monospace" font-size="11.00">banners</text>
</g>
<!-- \\SunLibraryModule -->
<g id="node30" class="node"><title>\\SunLibraryModule</title>
<ellipse fill="none" stroke="black" cx="81.2428" cy="-628" rx="81.4863" ry="18"/>
<text text-anchor="middle" x="81.2428" y="-624.3" font-family="Times New Roman,serif" font-size="14.00" fill="gray">\SunLibraryModule</text>
</g>
<!-- \\banners&#45;&gt;\\SunLibraryModule -->
<g id="edge4" class="edge"><title>\\banners&#45;&gt;\\SunLibraryModule</title>
<path fill="none" stroke="black" d="M264.852,-1216.81C251.004,-1212.98 235.582,-1206.37 225.486,-1195 151.976,-1112.24 99.7679,-759.094 85.906,-656.224"/>
<polygon fill="none" stroke="black" points="89.3341,-655.451 84.5443,-646.001 82.3954,-656.375 89.3341,-655.451"/>
</g>
<!-- \\clientSupporters -->
<g id="node5" class="node"><title>\\clientSupporters</title>
<polygon fill="none" stroke="black" points="359.486,-1186 234.486,-1186 234.486,-1150 359.486,-1150 359.486,-1186"/>
<text text-anchor="middle" x="296.986" y="-1165.2" font-family="Courier,monospace" font-size="11.00">clientSupporters</text>
</g>
<!-- \\clientSupporters&#45;&gt;\\SunLibraryModule -->
<g id="edge5" class="edge"><title>\\clientSupporters&#45;&gt;\\SunLibraryModule</title>
<path fill="none" stroke="black" d="M235.984,-1149.96C232.136,-1147.36 228.574,-1144.39 225.486,-1141 93.967,-996.578 81.9637,-741.203 81.7868,-656.318"/>
<polygon fill="none" stroke="black" points="85.2872,-656.174 81.8226,-646.162 78.2873,-656.15 85.2872,-656.174"/>
</g>
<!-- \\contact -->
<g id="node6" class="node"><title>\\contact</title>
<polygon fill="none" stroke="black" points="328.986,-1132 264.986,-1132 264.986,-1096 328.986,-1096 328.986,-1132"/>
<text text-anchor="middle" x="296.986" y="-1111.2" font-family="Courier,monospace" font-size="11.00">contact</text>
</g>
<!-- \\contact&#45;&gt;\\SunLibraryModule -->
<g id="edge6" class="edge"><title>\\contact&#45;&gt;\\SunLibraryModule</title>
<path fill="none" stroke="black" d="M264.772,-1108.45C251.075,-1104.55 235.801,-1097.99 225.486,-1087 106.26,-959.985 86.2277,-735.039 82.8954,-656.226"/>
<polygon fill="none" stroke="black" points="86.3883,-655.967 82.5274,-646.101 79.393,-656.221 86.3883,-655.967"/>
</g>
<!-- \\cookbook -->
<g id="node7" class="node"><title>\\cookbook</title>
<polygon fill="none" stroke="black" points="332.486,-1078 261.486,-1078 261.486,-1042 332.486,-1042 332.486,-1078"/>
<text text-anchor="middle" x="296.986" y="-1057.2" font-family="Courier,monospace" font-size="11.00">cookbook</text>
</g>
<!-- \\cookbook&#45;&gt;\\SunLibraryModule -->
<g id="edge7" class="edge"><title>\\cookbook&#45;&gt;\\SunLibraryModule</title>
<path fill="none" stroke="black" d="M261.362,-1053.19C248.676,-1049.17 235.09,-1042.86 225.486,-1033 118.543,-923.263 90.9932,-728.809 84.2831,-656.298"/>
<polygon fill="none" stroke="black" points="87.752,-655.786 83.4065,-646.123 80.7778,-656.387 87.752,-655.786"/>
</g>
<!-- \\domesticClass -->
<g id="node8" class="node"><title>\\domesticClass</title>
<polygon fill="none" stroke="black" points="348.986,-1024 244.986,-1024 244.986,-988 348.986,-988 348.986,-1024"/>
<text text-anchor="middle" x="296.986" y="-1003.2" font-family="Courier,monospace" font-size="11.00">domesticClass</text>
</g>
<!-- \\domesticClass&#45;&gt;\\SunLibraryModule -->
<g id="edge8" class="edge"><title>\\domesticClass&#45;&gt;\\SunLibraryModule</title>
<path fill="none" stroke="black" d="M244.812,-992.249C237.737,-988.758 231.013,-984.408 225.486,-979 130.57,-886.124 96.2901,-721.612 86.0256,-656.079"/>
<polygon fill="none" stroke="black" points="89.4713,-655.454 84.5283,-646.083 82.5485,-656.492 89.4713,-655.454"/>
</g>
<!-- \\dualslider -->
<g id="node9" class="node"><title>\\dualslider</title>
<polygon fill="none" stroke="black" points="338.986,-970 254.986,-970 254.986,-934 338.986,-934 338.986,-970"/>
<text text-anchor="middle" x="296.986" y="-949.2" font-family="Courier,monospace" font-size="11.00">dualslider</text>
</g>
<!-- \\dualslider&#45;&gt;\\SunLibraryModule -->
<g id="edge9" class="edge"><title>\\dualslider&#45;&gt;\\SunLibraryModule</title>
<path fill="none" stroke="black" d="M254.984,-942.188C244.461,-938.181 233.782,-932.63 225.486,-925 142.581,-848.755 102.499,-714.271 88.3868,-656.108"/>
<polygon fill="none" stroke="black" points="91.7455,-655.1 86.0495,-646.167 84.9313,-656.703 91.7455,-655.1"/>
</g>
<!-- \\experiences -->
<g id="node10" class="node"><title>\\experiences</title>
<polygon fill="none" stroke="black" points="342.486,-916 251.486,-916 251.486,-880 342.486,-880 342.486,-916"/>
<text text-anchor="middle" x="296.986" y="-895.2" font-family="Courier,monospace" font-size="11.00">experiences</text>
</g>
<!-- \\experiences&#45;&gt;\\SunLibraryModule -->
<g id="edge10" class="edge"><title>\\experiences&#45;&gt;\\SunLibraryModule</title>
<path fill="none" stroke="black" d="M251.35,-886.113C242.151,-882.293 232.992,-877.347 225.486,-871 154.118,-810.65 109.549,-705.226 91.4858,-655.477"/>
<polygon fill="none" stroke="black" points="94.7728,-654.274 88.1299,-646.021 88.1759,-656.615 94.7728,-654.274"/>
</g>
<!-- \\faq -->
<g id="node11" class="node"><title>\\faq</title>
<polygon fill="none" stroke="black" points="323.986,-862 269.986,-862 269.986,-826 323.986,-826 323.986,-862"/>
<text text-anchor="middle" x="296.986" y="-841.2" font-family="Courier,monospace" font-size="11.00">faq</text>
</g>
<!-- \\faq&#45;&gt;\\SunLibraryModule -->
<g id="edge11" class="edge"><title>\\faq&#45;&gt;\\SunLibraryModule</title>
<path fill="none" stroke="black" d="M269.789,-837.753C255.703,-833.504 238.587,-826.836 225.486,-817 165.59,-772.031 118.486,-695.534 96.2398,-655.025"/>
<polygon fill="none" stroke="black" points="99.2045,-653.149 91.3749,-646.011 93.0444,-656.474 99.2045,-653.149"/>
</g>
<!-- \\flatbedslider -->
<g id="node12" class="node"><title>\\flatbedslider</title>
<polygon fill="none" stroke="black" points="348.986,-808 244.986,-808 244.986,-772 348.986,-772 348.986,-808"/>
<text text-anchor="middle" x="296.986" y="-787.2" font-family="Courier,monospace" font-size="11.00">flatbedslider</text>
</g>
<!-- \\flatbedslider&#45;&gt;\\SunLibraryModule -->
<g id="edge12" class="edge"><title>\\flatbedslider&#45;&gt;\\SunLibraryModule</title>
<path fill="none" stroke="black" d="M244.768,-773.128C238.081,-770.142 231.479,-766.764 225.486,-763 176.814,-732.433 130.268,-683.761 104.062,-653.966"/>
<polygon fill="none" stroke="black" points="106.425,-651.349 97.2255,-646.094 101.14,-655.939 106.425,-651.349"/>
</g>
<!-- \\gallery -->
<g id="node13" class="node"><title>\\gallery</title>
<polygon fill="none" stroke="black" points="328.986,-754 264.986,-754 264.986,-718 328.986,-718 328.986,-754"/>
<text text-anchor="middle" x="296.986" y="-733.2" font-family="Courier,monospace" font-size="11.00">gallery</text>
</g>
<!-- \\gallery&#45;&gt;\\SunLibraryModule -->
<g id="edge13" class="edge"><title>\\gallery&#45;&gt;\\SunLibraryModule</title>
<path fill="none" stroke="black" d="M264.682,-725.151C252.301,-720.567 238.054,-714.92 225.486,-709 187.821,-691.259 146.62,-667.469 118.114,-650.265"/>
<polygon fill="none" stroke="black" points="119.69,-647.126 109.326,-644.926 116.056,-653.109 119.69,-647.126"/>
</g>
<!-- \\kidscorner -->
<g id="node14" class="node"><title>\\kidscorner</title>
<polygon fill="none" stroke="black" points="338.986,-700 254.986,-700 254.986,-664 338.986,-664 338.986,-700"/>
<text text-anchor="middle" x="296.986" y="-679.2" font-family="Courier,monospace" font-size="11.00">kidscorner</text>
</g>
<!-- \\kidscorner&#45;&gt;\\SunLibraryModule -->
<g id="edge14" class="edge"><title>\\kidscorner&#45;&gt;\\SunLibraryModule</title>
<path fill="none" stroke="black" d="M254.774,-671.588C223.726,-663.744 180.607,-652.851 145.243,-643.916"/>
<polygon fill="none" stroke="black" points="146.043,-640.509 135.49,-641.452 144.328,-647.295 146.043,-640.509"/>
</g>
<!-- \\specials -->
<g id="node15" class="node"><title>\\specials</title>
<polygon fill="none" stroke="black" points="332.486,-646 261.486,-646 261.486,-610 332.486,-610 332.486,-646"/>
<text text-anchor="middle" x="296.986" y="-625.2" font-family="Courier,monospace" font-size="11.00">specials</text>
</g>
<!-- \\specials&#45;&gt;\\SunLibraryModule -->
<g id="edge15" class="edge"><title>\\specials&#45;&gt;\\SunLibraryModule</title>
<path fill="none" stroke="black" d="M261.168,-628C237.151,-628 204.047,-628 172.839,-628"/>
<polygon fill="none" stroke="black" points="172.787,-624.5 162.787,-628 172.787,-631.5 172.787,-624.5"/>
</g>
<!-- \\menu -->
<g id="node16" class="node"><title>\\menu</title>
<polygon fill="none" stroke="black" points="323.986,-592 269.986,-592 269.986,-556 323.986,-556 323.986,-592"/>
<text text-anchor="middle" x="296.986" y="-571.2" font-family="Courier,monospace" font-size="11.00">menu</text>
</g>
<!-- \\menu&#45;&gt;\\SunLibraryModule -->
<g id="edge16" class="edge"><title>\\menu&#45;&gt;\\SunLibraryModule</title>
<path fill="none" stroke="black" d="M269.777,-580.621C239.022,-588.391 186.962,-601.544 145.486,-612.022"/>
<polygon fill="none" stroke="black" points="144.569,-608.644 135.731,-614.487 146.284,-615.431 144.569,-608.644"/>
</g>
<!-- \\pricing -->
<g id="node17" class="node"><title>\\pricing</title>
<polygon fill="none" stroke="black" points="328.986,-538 264.986,-538 264.986,-502 328.986,-502 328.986,-538"/>
<text text-anchor="middle" x="296.986" y="-517.2" font-family="Courier,monospace" font-size="11.00">pricing</text>
</g>
<!-- \\pricing&#45;&gt;\\SunLibraryModule -->
<g id="edge17" class="edge"><title>\\pricing&#45;&gt;\\SunLibraryModule</title>
<path fill="none" stroke="black" d="M264.682,-530.849C252.301,-535.433 238.054,-541.08 225.486,-547 187.821,-564.741 146.62,-588.531 118.114,-605.735"/>
<polygon fill="none" stroke="black" points="116.056,-602.891 109.326,-611.074 119.69,-608.874 116.056,-602.891"/>
</g>
<!-- \\projects -->
<g id="node18" class="node"><title>\\projects</title>
<polygon fill="none" stroke="black" points="332.486,-484 261.486,-484 261.486,-448 332.486,-448 332.486,-484"/>
<text text-anchor="middle" x="296.986" y="-463.2" font-family="Courier,monospace" font-size="11.00">projects</text>
</g>
<!-- \\projects&#45;&gt;\\SunLibraryModule -->
<g id="edge18" class="edge"><title>\\projects&#45;&gt;\\SunLibraryModule</title>
<path fill="none" stroke="black" d="M261.36,-476.223C249.507,-480.498 236.474,-486.099 225.486,-493 176.814,-523.567 130.268,-572.239 104.062,-602.034"/>
<polygon fill="none" stroke="black" points="101.14,-600.061 97.2255,-609.906 106.425,-604.651 101.14,-600.061"/>
</g>
<!-- \\TransportQuote -->
<g id="node19" class="node"><title>\\TransportQuote</title>
<polygon fill="none" stroke="black" points="352.486,-430 241.486,-430 241.486,-394 352.486,-394 352.486,-430"/>
<text text-anchor="middle" x="296.986" y="-409.2" font-family="Courier,monospace" font-size="11.00">TransportQuote</text>
</g>
<!-- \\TransportQuote&#45;&gt;\\SunLibraryModule -->
<g id="edge19" class="edge"><title>\\TransportQuote&#45;&gt;\\SunLibraryModule</title>
<path fill="none" stroke="black" d="M241.229,-429.391C235.672,-432.189 230.307,-435.38 225.486,-439 165.59,-483.969 118.486,-560.466 96.2398,-600.975"/>
<polygon fill="none" stroke="black" points="93.0444,-599.526 91.3749,-609.989 99.2045,-602.851 93.0444,-599.526"/>
</g>
<!-- \\resources -->
<g id="node20" class="node"><title>\\resources</title>
<polygon fill="none" stroke="black" points="335.486,-376 258.486,-376 258.486,-340 335.486,-340 335.486,-376"/>
<text text-anchor="middle" x="296.986" y="-355.2" font-family="Courier,monospace" font-size="11.00">resources</text>
</g>
<!-- \\resources&#45;&gt;\\SunLibraryModule -->
<g id="edge20" class="edge"><title>\\resources&#45;&gt;\\SunLibraryModule</title>
<path fill="none" stroke="black" d="M258.323,-367.195C246.897,-371.291 234.893,-377.045 225.486,-385 154.118,-445.35 109.549,-550.774 91.4858,-600.523"/>
<polygon fill="none" stroke="black" points="88.1759,-599.385 88.1299,-609.979 94.7728,-601.726 88.1759,-599.385"/>
</g>
<!-- \\services -->
<g id="node21" class="node"><title>\\services</title>
<polygon fill="none" stroke="black" points="332.486,-322 261.486,-322 261.486,-286 332.486,-286 332.486,-322"/>
<text text-anchor="middle" x="296.986" y="-301.2" font-family="Courier,monospace" font-size="11.00">services</text>
</g>
<!-- \\services&#45;&gt;\\SunLibraryModule -->
<g id="edge21" class="edge"><title>\\services&#45;&gt;\\SunLibraryModule</title>
<path fill="none" stroke="black" d="M261.187,-311.612C248.775,-315.706 235.422,-321.862 225.486,-331 142.581,-407.245 102.499,-541.729 88.3868,-599.892"/>
<polygon fill="none" stroke="black" points="84.9313,-599.297 86.0495,-609.833 91.7455,-600.9 84.9313,-599.297"/>
</g>
<!-- \\team -->
<g id="node22" class="node"><title>\\team</title>
<polygon fill="none" stroke="black" points="323.986,-268 269.986,-268 269.986,-232 323.986,-232 323.986,-268"/>
<text text-anchor="middle" x="296.986" y="-247.2" font-family="Courier,monospace" font-size="11.00">team</text>
</g>
<!-- \\team&#45;&gt;\\SunLibraryModule -->
<g id="edge22" class="edge"><title>\\team&#45;&gt;\\SunLibraryModule</title>
<path fill="none" stroke="black" d="M269.729,-254.7C255.101,-258.517 237.476,-265.267 225.486,-277 130.57,-369.876 96.2901,-534.388 86.0256,-599.921"/>
<polygon fill="none" stroke="black" points="82.5485,-599.508 84.5283,-609.917 89.4713,-600.546 82.5485,-599.508"/>
</g>
<!-- \\termsConditions -->
<g id="node23" class="node"><title>\\termsConditions</title>
<polygon fill="none" stroke="black" points="355.986,-214 237.986,-214 237.986,-178 355.986,-178 355.986,-214"/>
<text text-anchor="middle" x="296.986" y="-193.2" font-family="Courier,monospace" font-size="11.00">termsConditions</text>
</g>
<!-- \\termsConditions&#45;&gt;\\SunLibraryModule -->
<g id="edge23" class="edge"><title>\\termsConditions&#45;&gt;\\SunLibraryModule</title>
<path fill="none" stroke="black" d="M237.926,-213.21C233.381,-216.005 229.145,-219.245 225.486,-223 118.543,-332.737 90.9932,-527.191 84.2831,-599.702"/>
<polygon fill="none" stroke="black" points="80.7778,-599.613 83.4065,-609.877 87.752,-600.214 80.7778,-599.613"/>
</g>
<!-- \\testimonials -->
<g id="node24" class="node"><title>\\testimonials</title>
<polygon fill="none" stroke="black" points="345.986,-160 247.986,-160 247.986,-124 345.986,-124 345.986,-160"/>
<text text-anchor="middle" x="296.986" y="-139.2" font-family="Courier,monospace" font-size="11.00">testimonials</text>
</g>
<!-- \\testimonials&#45;&gt;\\SunLibraryModule -->
<g id="edge24" class="edge"><title>\\testimonials&#45;&gt;\\SunLibraryModule</title>
<path fill="none" stroke="black" d="M247.634,-153.783C239.419,-157.551 231.585,-162.502 225.486,-169 106.26,-296.015 86.2277,-520.961 82.8954,-599.774"/>
<polygon fill="none" stroke="black" points="79.393,-599.779 82.5274,-609.899 86.3883,-600.033 79.393,-599.779"/>
</g>
<!-- \\triwindow -->
<g id="node25" class="node"><title>\\triwindow</title>
<polygon fill="none" stroke="black" points="335.486,-106 258.486,-106 258.486,-70 335.486,-70 335.486,-106"/>
<text text-anchor="middle" x="296.986" y="-85.2" font-family="Courier,monospace" font-size="11.00">triwindow</text>
</g>
<!-- \\triwindow&#45;&gt;\\SunLibraryModule -->
<g id="edge25" class="edge"><title>\\triwindow&#45;&gt;\\SunLibraryModule</title>
<path fill="none" stroke="black" d="M258.453,-95.3068C246.492,-99.3208 234.134,-105.503 225.486,-115 93.967,-259.422 81.9637,-514.797 81.7868,-599.682"/>
<polygon fill="none" stroke="black" points="78.2873,-599.85 81.8226,-609.838 85.2872,-599.826 78.2873,-599.85"/>
</g>
<!-- \\welcome -->
<g id="node26" class="node"><title>\\welcome</title>
<polygon fill="none" stroke="black" points="328.986,-52 264.986,-52 264.986,-16 328.986,-16 328.986,-52"/>
<text text-anchor="middle" x="296.986" y="-31.2" font-family="Courier,monospace" font-size="11.00">welcome</text>
</g>
<!-- \\welcome&#45;&gt;\\SunLibraryModule -->
<g id="edge26" class="edge"><title>\\welcome&#45;&gt;\\SunLibraryModule</title>
<path fill="none" stroke="black" d="M264.852,-39.194C251.004,-43.0234 235.582,-49.6328 225.486,-61 151.976,-143.764 99.7679,-496.906 85.906,-599.776"/>
<polygon fill="none" stroke="black" points="82.3954,-599.625 84.5443,-609.999 89.3341,-600.549 82.3954,-599.625"/>
</g>
</g>
</svg>
