<?xml version="1.0" encoding="UTF-8" standalone="no"?>
<!DOCTYPE svg PUBLIC "-//W3C//DTD SVG 1.1//EN"
 "http://www.w3.org/Graphics/SVG/1.1/DTD/svg11.dtd">
<!-- Generated by graphviz version 2.38.0 (20140413.2041)
 -->
<!-- Title: G Pages: 1 -->
<svg width="363pt" height="1456pt"
 viewBox="0.00 0.00 363.00 1456.00" xmlns="http://www.w3.org/2000/svg" xmlns:xlink="http://www.w3.org/1999/xlink">
<g id="graph0" class="graph" transform="scale(1 1) rotate(0) translate(4 1452)">
<title>G</title>
<polygon fill="white" stroke="none" points="-4,4 -4,-1452 359,-1452 359,4 -4,4"/>
<g id="clust1" class="cluster"><title>cluster_Global</title>
<path fill="none" stroke="gray" d="M20,-152C20,-152 335,-152 335,-152 341,-152 347,-158 347,-164 347,-164 347,-1428 347,-1428 347,-1434 341,-1440 335,-1440 335,-1440 20,-1440 20,-1440 14,-1440 8,-1434 8,-1428 8,-1428 8,-164 8,-164 8,-158 14,-152 20,-152"/>
<text text-anchor="middle" x="177.5" y="-1427.2" font-family="Times New Roman,serif" font-size="11.00" fill="gray">Global</text>
</g>
<g id="clust2" class="cluster"><title>cluster_\FileAttributeTools</title>
<path fill="none" stroke="gray" d="M224,-1340C224,-1340 327,-1340 327,-1340 333,-1340 339,-1346 339,-1352 339,-1352 339,-1400 339,-1400 339,-1406 333,-1412 327,-1412 327,-1412 224,-1412 224,-1412 218,-1412 212,-1406 212,-1400 212,-1400 212,-1352 212,-1352 212,-1346 218,-1340 224,-1340"/>
<text text-anchor="middle" x="275.5" y="-1399.2" font-family="Times New Roman,serif" font-size="11.00" fill="gray">FileAttributeTools</text>
</g>
<!-- \\FileAttributeTools\\FileAttributes -->
<g id="node1" class="node"><title>\\FileAttributeTools\\FileAttributes</title>
<polygon fill="none" stroke="black" points="331,-1384 220,-1384 220,-1348 331,-1348 331,-1384"/>
<text text-anchor="middle" x="275.5" y="-1363.2" font-family="Courier,monospace" font-size="11.00">FileAttributes</text>
</g>
<!-- \\Database -->
<g id="node2" class="node"><title>\\Database</title>
<polygon fill="none" stroke="black" points="311,-1330 240,-1330 240,-1294 311,-1294 311,-1330"/>
<text text-anchor="middle" x="275.5" y="-1309.2" font-family="Courier,monospace" font-size="11.00">Database</text>
</g>
<!-- \\domesticClass -->
<g id="node3" class="node"><title>\\domesticClass</title>
<polygon fill="none" stroke="black" points="327.5,-1276 223.5,-1276 223.5,-1240 327.5,-1240 327.5,-1276"/>
<text text-anchor="middle" x="275.5" y="-1255.2" font-family="Courier,monospace" font-size="11.00">domesticClass</text>
</g>
<!-- \\SunLibraryModule -->
<g id="node8" class="node"><title>\\SunLibraryModule</title>
<polygon fill="none" stroke="black" points="141,-763 16,-763 16,-727 141,-727 141,-763"/>
<text text-anchor="start" x="44.5" y="-748.2" font-family="Courier,monospace" font-size="11.00">«abstract»</text>
<text text-anchor="start" x="24" y="-736.2" font-family="Courier,monospace" font-size="11.00">SunLibraryModule</text>
</g>
<!-- \\domesticClass&#45;&gt;\\SunLibraryModule -->
<g id="edge1" class="edge"><title>\\domesticClass&#45;&gt;\\SunLibraryModule</title>
<path fill="none" stroke="black" d="M223.315,-1240.8C219.121,-1238 215.253,-1234.75 212,-1231 91.885,-1092.55 79.6358,-855.04 79.1422,-773.476"/>
<polygon fill="none" stroke="black" points="82.6423,-773.454 79.1381,-763.456 75.6423,-773.457 82.6423,-773.454"/>
</g>
<!-- \\termsConditions -->
<g id="node4" class="node"><title>\\termsConditions</title>
<polygon fill="none" stroke="black" points="334.5,-1222 216.5,-1222 216.5,-1186 334.5,-1186 334.5,-1222"/>
<text text-anchor="middle" x="275.5" y="-1201.2" font-family="Courier,monospace" font-size="11.00">termsConditions</text>
</g>
<!-- \\termsConditions&#45;&gt;\\SunLibraryModule -->
<g id="edge2" class="edge"><title>\\termsConditions&#45;&gt;\\SunLibraryModule</title>
<path fill="none" stroke="black" d="M222.241,-1185.89C218.48,-1183.29 214.996,-1180.35 212,-1177 103.761,-1056.13 83.9315,-848.583 80.3073,-773.313"/>
<polygon fill="none" stroke="black" points="83.7989,-773.038 79.8816,-763.194 76.8051,-773.332 83.7989,-773.038"/>
</g>
<!-- \\kidscorner -->
<g id="node5" class="node"><title>\\kidscorner</title>
<polygon fill="none" stroke="black" points="317.5,-1168 233.5,-1168 233.5,-1132 317.5,-1132 317.5,-1168"/>
<text text-anchor="middle" x="275.5" y="-1147.2" font-family="Courier,monospace" font-size="11.00">kidscorner</text>
</g>
<!-- \\kidscorner&#45;&gt;\\SunLibraryModule -->
<g id="edge3" class="edge"><title>\\kidscorner&#45;&gt;\\SunLibraryModule</title>
<path fill="none" stroke="black" d="M233.365,-1138.01C225.492,-1134.22 217.882,-1129.31 212,-1123 115.705,-1019.65 88.8026,-842.317 81.7982,-773.481"/>
<polygon fill="none" stroke="black" points="85.2698,-773.016 80.8373,-763.393 78.3014,-773.68 85.2698,-773.016"/>
</g>
<!-- \\flatbedslider -->
<g id="node6" class="node"><title>\\flatbedslider</title>
<polygon fill="none" stroke="black" points="327.5,-1114 223.5,-1114 223.5,-1078 327.5,-1078 327.5,-1114"/>
<text text-anchor="middle" x="275.5" y="-1093.2" font-family="Courier,monospace" font-size="11.00">flatbedslider</text>
</g>
<!-- \\flatbedslider&#45;&gt;\\SunLibraryModule -->
<g id="edge4" class="edge"><title>\\flatbedslider&#45;&gt;\\SunLibraryModule</title>
<path fill="none" stroke="black" d="M223.476,-1078.18C219.302,-1075.5 215.393,-1072.46 212,-1069 127.306,-982.631 94.2129,-834.694 83.6802,-773.147"/>
<polygon fill="none" stroke="black" points="87.0929,-772.329 82.0208,-763.027 80.1852,-773.462 87.0929,-772.329"/>
</g>
<!-- \\specials -->
<g id="node7" class="node"><title>\\specials</title>
<polygon fill="none" stroke="black" points="311,-1060 240,-1060 240,-1024 311,-1024 311,-1060"/>
<text text-anchor="middle" x="275.5" y="-1039.2" font-family="Courier,monospace" font-size="11.00">specials</text>
</g>
<!-- \\specials&#45;&gt;\\SunLibraryModule -->
<g id="edge5" class="edge"><title>\\specials&#45;&gt;\\SunLibraryModule</title>
<path fill="none" stroke="black" d="M239.783,-1032.06C229.936,-1027.98 219.788,-1022.42 212,-1015 138.812,-945.273 100.544,-826.598 86.2351,-772.882"/>
<polygon fill="none" stroke="black" points="89.5819,-771.843 83.6896,-763.038 82.8048,-773.596 89.5819,-771.843"/>
</g>
<!-- \\triwindow -->
<g id="node9" class="node"><title>\\triwindow</title>
<polygon fill="none" stroke="black" points="314,-1006 237,-1006 237,-970 314,-970 314,-1006"/>
<text text-anchor="middle" x="275.5" y="-985.2" font-family="Courier,monospace" font-size="11.00">triwindow</text>
</g>
<!-- \\triwindow&#45;&gt;\\SunLibraryModule -->
<g id="edge6" class="edge"><title>\\triwindow&#45;&gt;\\SunLibraryModule</title>
<path fill="none" stroke="black" d="M236.954,-976.19C228.148,-972.277 219.235,-967.271 212,-961 150.189,-907.422 108.268,-817.725 89.9519,-772.641"/>
<polygon fill="none" stroke="black" points="93.1501,-771.212 86.2028,-763.213 86.6455,-773.798 93.1501,-771.212"/>
</g>
<!-- \\transportWelcome -->
<g id="node10" class="node"><title>\\transportWelcome</title>
<polygon fill="none" stroke="black" points="338,-952 213,-952 213,-916 338,-916 338,-952"/>
<text text-anchor="middle" x="275.5" y="-931.2" font-family="Courier,monospace" font-size="11.00">transportWelcome</text>
</g>
<!-- \\transportWelcome&#45;&gt;\\SunLibraryModule -->
<g id="edge7" class="edge"><title>\\transportWelcome&#45;&gt;\\SunLibraryModule</title>
<path fill="none" stroke="black" d="M226.09,-915.914C221.138,-913.245 216.34,-910.275 212,-907 161.284,-868.724 118.028,-807.148 95.7062,-771.964"/>
<polygon fill="none" stroke="black" points="98.4985,-769.828 90.233,-763.2 92.5612,-773.536 98.4985,-769.828"/>
</g>
<!-- \\welcome -->
<g id="node11" class="node"><title>\\welcome</title>
<polygon fill="none" stroke="black" points="307.5,-898 243.5,-898 243.5,-862 307.5,-862 307.5,-898"/>
<text text-anchor="middle" x="275.5" y="-877.2" font-family="Courier,monospace" font-size="11.00">welcome</text>
</g>
<!-- \\welcome&#45;&gt;\\SunLibraryModule -->
<g id="edge8" class="edge"><title>\\welcome&#45;&gt;\\SunLibraryModule</title>
<path fill="none" stroke="black" d="M243.46,-868.58C233.146,-864.27 221.799,-858.952 212,-853 172.233,-828.846 131.478,-793.77 105.861,-770.209"/>
<polygon fill="none" stroke="black" points="108.123,-767.533 98.4148,-763.292 103.359,-772.662 108.123,-767.533"/>
</g>
<!-- \\team -->
<g id="node12" class="node"><title>\\team</title>
<polygon fill="none" stroke="black" points="302.5,-844 248.5,-844 248.5,-808 302.5,-808 302.5,-844"/>
<text text-anchor="middle" x="275.5" y="-823.2" font-family="Courier,monospace" font-size="11.00">team</text>
</g>
<!-- \\team&#45;&gt;\\SunLibraryModule -->
<g id="edge9" class="edge"><title>\\team&#45;&gt;\\SunLibraryModule</title>
<path fill="none" stroke="black" d="M248.201,-815.076C218.588,-802.775 169.706,-782.47 132.163,-766.875"/>
<polygon fill="none" stroke="black" points="133.458,-763.624 122.881,-763.02 130.773,-770.088 133.458,-763.624"/>
</g>
<!-- \\clientSupporters -->
<g id="node13" class="node"><title>\\clientSupporters</title>
<polygon fill="none" stroke="black" points="338,-790 213,-790 213,-754 338,-754 338,-790"/>
<text text-anchor="middle" x="275.5" y="-769.2" font-family="Courier,monospace" font-size="11.00">clientSupporters</text>
</g>
<!-- \\clientSupporters&#45;&gt;\\SunLibraryModule -->
<g id="edge10" class="edge"><title>\\clientSupporters&#45;&gt;\\SunLibraryModule</title>
<path fill="none" stroke="black" d="M212.801,-763.457C193.233,-760.748 171.431,-757.729 151.221,-754.931"/>
<polygon fill="none" stroke="black" points="151.518,-751.438 141.132,-753.534 150.558,-758.372 151.518,-751.438"/>
</g>
<!-- \\banners -->
<g id="node14" class="node"><title>\\banners</title>
<polygon fill="none" stroke="black" points="307.5,-736 243.5,-736 243.5,-700 307.5,-700 307.5,-736"/>
<text text-anchor="middle" x="275.5" y="-715.2" font-family="Courier,monospace" font-size="11.00">banners</text>
</g>
<!-- \\banners&#45;&gt;\\SunLibraryModule -->
<g id="edge11" class="edge"><title>\\banners&#45;&gt;\\SunLibraryModule</title>
<path fill="none" stroke="black" d="M243.17,-722.338C218.398,-725.768 182.835,-730.692 151.184,-735.075"/>
<polygon fill="none" stroke="black" points="150.489,-731.637 141.063,-736.476 151.449,-738.571 150.489,-731.637"/>
</g>
<!-- \\ModuleManager -->
<g id="node15" class="node"><title>\\ModuleManager</title>
<polygon fill="none" stroke="black" points="327.5,-196 223.5,-196 223.5,-160 327.5,-160 327.5,-196"/>
<text text-anchor="middle" x="275.5" y="-175.2" font-family="Courier,monospace" font-size="11.00">ModuleManager</text>
</g>
<!-- \\Iterator -->
<g id="node25" class="node"><title>\\Iterator</title>
<ellipse fill="none" stroke="black" cx="78.5" cy="-126" rx="39.7935" ry="18"/>
<text text-anchor="middle" x="78.5" y="-122.3" font-family="Times New Roman,serif" font-size="14.00" fill="gray">\Iterator</text>
</g>
<!-- \\ModuleManager&#45;&gt;\\Iterator -->
<g id="edge12" class="edge"><title>\\ModuleManager&#45;&gt;\\Iterator</title>
<path fill="none" stroke="black" stroke-dasharray="1,5" d="M223.266,-164.338C192.041,-156.011 152.573,-145.486 122.894,-137.572"/>
<polygon fill="none" stroke="black" points="123.794,-134.19 113.23,-134.995 121.99,-140.953 123.794,-134.19"/>
</g>
<!-- \\ArrayAccess -->
<g id="node26" class="node"><title>\\ArrayAccess</title>
<ellipse fill="none" stroke="black" cx="78.5" cy="-72" rx="60.3893" ry="18"/>
<text text-anchor="middle" x="78.5" y="-68.3" font-family="Times New Roman,serif" font-size="14.00" fill="gray">\ArrayAccess</text>
</g>
<!-- \\ModuleManager&#45;&gt;\\ArrayAccess -->
<g id="edge13" class="edge"><title>\\ModuleManager&#45;&gt;\\ArrayAccess</title>
<path fill="none" stroke="black" stroke-dasharray="1,5" d="M246.158,-159.872C219.512,-143.157 178.261,-118.116 141,-99 135.616,-96.238 129.888,-93.4864 124.177,-90.8544"/>
<polygon fill="none" stroke="black" points="125.199,-87.4761 114.644,-86.5573 122.322,-93.8577 125.199,-87.4761"/>
</g>
<!-- \\Countable -->
<g id="node27" class="node"><title>\\Countable</title>
<ellipse fill="none" stroke="black" cx="78.5" cy="-18" rx="50.0912" ry="18"/>
<text text-anchor="middle" x="78.5" y="-14.3" font-family="Times New Roman,serif" font-size="14.00" fill="gray">\Countable</text>
</g>
<!-- \\ModuleManager&#45;&gt;\\Countable -->
<g id="edge14" class="edge"><title>\\ModuleManager&#45;&gt;\\Countable</title>
<path fill="none" stroke="black" stroke-dasharray="1,5" d="M260.19,-159.953C237.426,-132.203 190.46,-78.7364 141,-45 135.69,-41.3779 129.815,-38.0638 123.865,-35.0929"/>
<polygon fill="none" stroke="black" points="125.063,-31.789 114.523,-30.7121 122.09,-38.1268 125.063,-31.789"/>
</g>
<!-- \\cookbook -->
<g id="node16" class="node"><title>\\cookbook</title>
<polygon fill="none" stroke="black" points="311,-682 240,-682 240,-646 311,-646 311,-682"/>
<text text-anchor="middle" x="275.5" y="-661.2" font-family="Courier,monospace" font-size="11.00">cookbook</text>
</g>
<!-- \\cookbook&#45;&gt;\\SunLibraryModule -->
<g id="edge15" class="edge"><title>\\cookbook&#45;&gt;\\SunLibraryModule</title>
<path fill="none" stroke="black" d="M239.638,-678.481C209.798,-690.876 166.383,-708.91 132.284,-723.074"/>
<polygon fill="none" stroke="black" points="130.824,-719.891 122.932,-726.959 133.51,-726.355 130.824,-719.891"/>
</g>
<!-- \\contact -->
<g id="node17" class="node"><title>\\contact</title>
<polygon fill="none" stroke="black" points="307.5,-628 243.5,-628 243.5,-592 307.5,-592 307.5,-628"/>
<text text-anchor="middle" x="275.5" y="-607.2" font-family="Courier,monospace" font-size="11.00">contact</text>
</g>
<!-- \\contact&#45;&gt;\\SunLibraryModule -->
<g id="edge16" class="edge"><title>\\contact&#45;&gt;\\SunLibraryModule</title>
<path fill="none" stroke="black" d="M243.46,-621.42C233.146,-625.73 221.799,-631.048 212,-637 172.233,-661.154 131.478,-696.23 105.861,-719.791"/>
<polygon fill="none" stroke="black" points="103.359,-717.338 98.4148,-726.708 108.123,-722.467 103.359,-717.338"/>
</g>
<!-- \\dualslider -->
<g id="node18" class="node"><title>\\dualslider</title>
<polygon fill="none" stroke="black" points="317.5,-574 233.5,-574 233.5,-538 317.5,-538 317.5,-574"/>
<text text-anchor="middle" x="275.5" y="-553.2" font-family="Courier,monospace" font-size="11.00">dualslider</text>
</g>
<!-- \\dualslider&#45;&gt;\\SunLibraryModule -->
<g id="edge17" class="edge"><title>\\dualslider&#45;&gt;\\SunLibraryModule</title>
<path fill="none" stroke="black" d="M233.266,-570.463C225.833,-573.984 218.415,-578.158 212,-583 161.284,-621.276 118.028,-682.852 95.7062,-718.036"/>
<polygon fill="none" stroke="black" points="92.5612,-716.464 90.233,-726.8 98.4985,-720.172 92.5612,-716.464"/>
</g>
<!-- \\experiences -->
<g id="node19" class="node"><title>\\experiences</title>
<polygon fill="none" stroke="black" points="321,-520 230,-520 230,-484 321,-484 321,-520"/>
<text text-anchor="middle" x="275.5" y="-499.2" font-family="Courier,monospace" font-size="11.00">experiences</text>
</g>
<!-- \\experiences&#45;&gt;\\SunLibraryModule -->
<g id="edge18" class="edge"><title>\\experiences&#45;&gt;\\SunLibraryModule</title>
<path fill="none" stroke="black" d="M229.791,-517.244C223.43,-520.536 217.27,-524.432 212,-529 150.189,-582.578 108.268,-672.275 89.9519,-717.359"/>
<polygon fill="none" stroke="black" points="86.6455,-716.202 86.2028,-726.787 93.1501,-718.788 86.6455,-716.202"/>
</g>
<!-- \\gallery -->
<g id="node20" class="node"><title>\\gallery</title>
<polygon fill="none" stroke="black" points="307.5,-466 243.5,-466 243.5,-430 307.5,-430 307.5,-466"/>
<text text-anchor="middle" x="275.5" y="-445.2" font-family="Courier,monospace" font-size="11.00">gallery</text>
</g>
<!-- \\gallery&#45;&gt;\\SunLibraryModule -->
<g id="edge19" class="edge"><title>\\gallery&#45;&gt;\\SunLibraryModule</title>
<path fill="none" stroke="black" d="M243.336,-456.528C232.424,-460.708 220.729,-466.684 212,-475 138.812,-544.727 100.544,-663.402 86.2351,-717.118"/>
<polygon fill="none" stroke="black" points="82.8048,-716.404 83.6896,-726.962 89.5819,-718.157 82.8048,-716.404"/>
</g>
<!-- \\TransportQuote -->
<g id="node21" class="node"><title>\\TransportQuote</title>
<polygon fill="none" stroke="black" points="331,-412 220,-412 220,-376 331,-376 331,-412"/>
<text text-anchor="middle" x="275.5" y="-391.2" font-family="Courier,monospace" font-size="11.00">TransportQuote</text>
</g>
<!-- \\TransportQuote&#45;&gt;\\SunLibraryModule -->
<g id="edge20" class="edge"><title>\\TransportQuote&#45;&gt;\\SunLibraryModule</title>
<path fill="none" stroke="black" d="M223.171,-412.019C219.112,-414.644 215.31,-417.624 212,-421 127.306,-507.369 94.2129,-655.306 83.6802,-716.853"/>
<polygon fill="none" stroke="black" points="80.1852,-716.538 82.0208,-726.973 87.0929,-717.671 80.1852,-716.538"/>
</g>
<!-- \\pricing -->
<g id="node22" class="node"><title>\\pricing</title>
<polygon fill="none" stroke="black" points="307.5,-358 243.5,-358 243.5,-322 307.5,-322 307.5,-358"/>
<text text-anchor="middle" x="275.5" y="-337.2" font-family="Courier,monospace" font-size="11.00">pricing</text>
</g>
<!-- \\pricing&#45;&gt;\\SunLibraryModule -->
<g id="edge21" class="edge"><title>\\pricing&#45;&gt;\\SunLibraryModule</title>
<path fill="none" stroke="black" d="M243.427,-347.74C232.266,-351.864 220.38,-358.006 212,-367 115.705,-470.35 88.8026,-647.683 81.7982,-716.519"/>
<polygon fill="none" stroke="black" points="78.3014,-716.32 80.8373,-726.607 85.2698,-716.984 78.3014,-716.32"/>
</g>
<!-- \\projects -->
<g id="node23" class="node"><title>\\projects</title>
<polygon fill="none" stroke="black" points="311,-304 240,-304 240,-268 311,-268 311,-304"/>
<text text-anchor="middle" x="275.5" y="-283.2" font-family="Courier,monospace" font-size="11.00">projects</text>
</g>
<!-- \\projects&#45;&gt;\\SunLibraryModule -->
<g id="edge22" class="edge"><title>\\projects&#45;&gt;\\SunLibraryModule</title>
<path fill="none" stroke="black" d="M239.996,-294.809C229.807,-298.884 219.412,-304.723 212,-313 103.761,-433.874 83.9315,-641.417 80.3073,-716.687"/>
<polygon fill="none" stroke="black" points="76.8051,-716.668 79.8816,-726.806 83.7989,-716.962 76.8051,-716.668"/>
</g>
<!-- \\menu -->
<g id="node24" class="node"><title>\\menu</title>
<polygon fill="none" stroke="black" points="302.5,-250 248.5,-250 248.5,-214 302.5,-214 302.5,-250"/>
<text text-anchor="middle" x="275.5" y="-229.2" font-family="Courier,monospace" font-size="11.00">menu</text>
</g>
<!-- \\menu&#45;&gt;\\SunLibraryModule -->
<g id="edge23" class="edge"><title>\\menu&#45;&gt;\\SunLibraryModule</title>
<path fill="none" stroke="black" d="M248.194,-237.693C235.609,-241.684 221.295,-248.286 212,-259 91.885,-397.455 79.6358,-634.96 79.1422,-716.524"/>
<polygon fill="none" stroke="black" points="75.6423,-716.543 79.1381,-726.544 82.6423,-716.546 75.6423,-716.543"/>
</g>
</g>
</svg>
